<svg width="23" height="16" viewBox="0 0 23 16" fill="none" xmlns="http://www.w3.org/2000/svg">
<path d="M16.8817 0.237029C14.9593 0.237029 13.5473 1.02487 12.4168 2.5084V0.610215H9.8838V10.6862C9.50219 12.4278 7.94711 13.5565 5.98657 13.5565C3.60148 13.5565 2.44233 12.0592 2.44233 9.78783V0.610215H0V9.70029C0 13.3815 2.08457 15.768 5.41892 15.768C7.3413 15.768 8.75327 15.0078 9.8838 13.5243V15.4225H12.4168V5.34645C12.7984 3.60031 14.3535 2.45311 16.3188 2.45311C18.6991 2.45311 19.863 3.9781 19.863 6.24947V13.0636C19.863 14.3674 20.9554 15.4225 22.3053 15.4225V6.3324C22.3053 2.65122 20.2208 0.232422 16.8864 0.232422" fill="currentColor"/>
</svg>
