<svg width="49" height="48" viewBox="0 0 49 48" fill="none" xmlns="http://www.w3.org/2000/svg">
<path fill-rule="evenodd" clip-rule="evenodd" d="M24.3052 48C37.56 48 48.3052 37.2548 48.3052 24C48.3052 10.7452 37.56 0 24.3052 0C11.0504 0 0.305176 10.7452 0.305176 24C0.305176 37.2548 11.0504 48 24.3052 48ZM25.552 18.2448C26.667 16.7816 28.0597 16.0045 29.9557 16.0045L29.9604 16C33.2491 16 35.3052 18.3857 35.3052 22.0165V30.9821C33.9737 30.9821 32.8963 29.9415 32.8963 28.6555V21.9347C32.8963 19.6944 31.7483 18.1903 29.4005 18.1903C27.4622 18.1903 25.9283 19.3218 25.552 21.044V30.9821H23.0537V29.1099C21.9386 30.5731 20.546 31.3229 18.6499 31.3229C15.3612 31.3229 13.3052 28.9691 13.3052 25.3383V16.3726H15.7141V25.4246C15.7141 27.6649 16.8574 29.1417 19.2098 29.1417C21.1435 29.1417 22.6773 28.0284 23.0537 26.3107V16.3726H25.552V18.2448Z" fill="currentColor"/>
</svg>
